<svg xmlns="http://www.w3.org/2000/svg" xmlns:svg="http://www.w3.org/2000/svg" id="canvas" width="448" height="520" version="1.1"><metadata id="metadata31"/><polygon id="tr0" fill="none" points="223.923 10 223.923 130 327.846 70"/><polygon id="tr1" fill="none" points="223.923 10 223.923 130 120 70"/><polygon id="tr2" fill="#3960A9" points="120 70 120 190 223.923 130"/><polygon id="tr3" fill="#3960A9" points="120 70 120 190 16.077 130"/><polygon id="tr4" fill="none" points="16.077 130 16.077 250 120 190"/><polygon id="tr5" fill="none" points="327.846 70 327.846 190 431.769 130"/><polygon id="tr6" fill="#3960A9" points="327.846 70 327.846 190 223.923 130"/><polygon id="tr7" fill="#3960A9" points="223.923 130 223.923 250 327.846 190"/><polygon id="tr8" fill="#3960A9" points="223.923 130 223.923 250 120 190"/><polygon id="tr9" fill="#49BCFF" points="120 190 120 310 223.923 250"/><polygon id="tr10" fill="none" points="120 190 120 310 16.077 250"/><polygon id="tr11" fill="none" points="16.077 250 16.077 370 120 310"/><polygon id="tr12" fill="none" points="431.769 130 431.769 250 327.846 190"/><polygon id="tr13" fill="none" points="327.846 190 327.846 310 431.769 250"/><polygon id="tr14" fill="#20B7E8" points="327.846 190 327.846 310 223.923 250"/><polygon id="tr15" fill="#20B7E8" points="223.923 250 223.923 370 327.846 310"/><polygon id="tr16" fill="#49BCFF" points="223.923 250 223.923 370 120 310"/><polygon id="tr17" fill="#20B7E8" points="120 310 120 430 223.923 370"/><polygon id="tr18" fill="none" points="120 310 120 430 16.077 370"/><polygon id="tr19" fill="none" points="431.769 250 431.769 370 327.846 310"/><polygon id="tr20" fill="none" points="327.846 310 327.846 430 431.769 370"/><polygon id="tr21" fill="none" points="327.846 310 327.846 430 223.923 370"/><polygon id="tr22" fill="none" points="223.923 370 223.923 490 327.846 430"/><polygon id="tr23" fill="#20B7E8" points="223.923 370 223.923 490 120 430"/><flowRoot id="flowRoot3736" fill="#000" fill-opacity="1" stroke="none" font-family="Droid Sans Mono" font-size="40" font-stretch="normal" font-style="normal" font-variant="normal" font-weight="normal" letter-spacing="0" word-spacing="0" xml:space="preserve" style="line-height:1.25;-inkscape-font-specification:'Droid Sans Mono'"><flowRegion style="-inkscape-font-specification:'Droid Sans Mono'" id="flowRegion3738" font-family="Droid Sans Mono" font-stretch="normal" font-style="normal" font-variant="normal" font-weight="normal"><rect font-family="Droid Sans Mono" style="-inkscape-font-specification:'Droid Sans Mono'" id="rect3740" width="297.458" height="107.966" x="-489.153" y="163.051" font-stretch="normal" font-style="normal" font-variant="normal" font-weight="normal"/></flowRegion><flowPara style="-inkscape-font-specification:FreeMono" id="flowPara3742" font-family="FreeMono" font-size="64" font-stretch="normal" font-style="normal" font-variant="normal" font-weight="normal">Arch</flowPara></flowRoot><flowRoot id="flowRoot3744" fill="#000" fill-opacity="1" stroke="none" font-family="sans-serif" font-size="40" font-style="normal" font-weight="normal" letter-spacing="0" word-spacing="0" xml:space="preserve" style="line-height:1.25"><flowRegion id="flowRegion3746"><rect id="rect3748" width="15.424" height="134.407" x="-506.78" y="220.339"/></flowRegion><flowPara id="flowPara3750"/></flowRoot><text id="text3754" x="-517.797" y="447.288" fill="#000" fill-opacity="1" stroke="none" font-family="sans-serif" font-size="40" font-style="normal" font-weight="normal" letter-spacing="0" word-spacing="0" xml:space="preserve" style="line-height:1.25"><tspan style="-inkscape-font-specification:'FreeMono Bold'" id="tspan3752" x="-517.797" y="447.288" font-family="FreeMono" font-size="64" font-stretch="normal" font-style="normal" font-variant="normal" font-weight="bold">brinkOS</tspan></text></svg>